<svg width="886" height="259" viewBox="0 0 886 259" fill="none" xmlns="http://www.w3.org/2000/svg">
<path fill-rule="evenodd" clip-rule="evenodd" d="M323 48.0626C331.54 46.7036 339.207 48.5376 346 53.5626C355.706 67.4726 365.039 81.6386 374 96.0626C381.735 84.9376 389.235 73.6046 396.5 62.0626C404.895 47.4756 416.728 43.9756 432 51.5626C438.875 57.4356 440.709 64.6026 437.5 73.0626C425.7 91.8366 413.533 110.337 401 128.563C402.03 131.123 403.197 133.623 404.5 136.063C416.558 153.123 428.225 170.457 439.5 188.063C442.536 203.545 436.036 211.545 420 212.063C410.827 212.06 403.994 208.06 399.5 200.063C391.248 187.224 382.748 174.557 374 162.063C364.846 175.693 355.68 189.359 346.5 203.063C337.78 213.532 327.28 215.699 315 209.563C308.057 203.381 306.224 195.881 309.5 187.063C322.862 167.867 336.029 148.533 349 129.063C335.906 109.868 323.073 90.5346 310.5 71.0626C308.417 59.8896 312.583 52.2236 323 48.0626Z" fill="white"/>
<path fill-rule="evenodd" clip-rule="evenodd" d="M779 49.0626C809.002 48.8956 839.002 49.0626 869 49.5626C881.705 53.4726 886.872 61.9726 884.5 75.0626C882.667 80.8956 878.833 84.7296 873 86.5626C864 86.8956 855 87.2296 846 87.5626C845.5 88.0626 845 88.5626 844.5 89.0626C844.167 125.73 843.833 162.396 843.5 199.063C841.757 204.473 838.257 208.307 833 210.563C826.915 211.424 820.915 211.09 815 209.563C810.712 207.271 807.878 203.771 806.5 199.063C805.031 161.77 804.531 124.437 805 87.0626C795.328 87.2286 785.661 87.0626 776 86.5626C765.907 80.9846 762.407 72.4846 765.5 61.0626C767.891 54.6276 772.391 50.6276 779 49.0626Z" fill="white"/>
<path fill-rule="evenodd" clip-rule="evenodd" d="M609 48.0626C623.58 44.6066 632.746 49.9396 636.5 64.0626C637.167 108.063 637.167 152.063 636.5 196.063C633.991 206.57 627.324 211.903 616.5 212.063C605.223 211.784 598.556 206.117 596.5 195.063C595.833 151.396 595.833 107.73 596.5 64.0626C597.599 56.1506 601.766 50.8176 609 48.0626Z" fill="white"/>
<path fill-rule="evenodd" clip-rule="evenodd" d="M676 49.0626C695.336 48.8956 714.67 49.0626 734 49.5626C745.394 50.2896 751.394 56.2896 752 67.5626C752.533 75.8386 749.2 81.8386 742 85.5626C729.403 86.8376 716.736 87.5046 704 87.5626C702.734 87.8716 701.567 88.3716 700.5 89.0626C699.668 97.0836 699.835 105.084 701 113.063C714.024 113.602 727.024 114.435 740 115.563C745.671 121.224 747.838 128.057 746.5 136.063C746.096 142.784 742.929 147.618 737 150.563C725.724 151.806 714.391 152.473 703 152.563C702.084 152.937 701.25 153.437 700.5 154.063C700.454 169.797 699.787 185.463 698.5 201.063C690.533 212.263 680.367 214.763 668 208.563C664.119 205.635 661.619 201.802 660.5 197.063C659.833 153.063 659.833 109.063 660.5 65.0626C662.515 56.5486 667.682 51.2156 676 49.0626Z" fill="white"/>
<path fill-rule="evenodd" clip-rule="evenodd" d="M27 0.0626406C95.334 -0.104359 163.667 0.0626406 232 0.562641C247.198 3.42764 257.031 12.2606 261.5 27.0626C262.167 94.3956 262.167 161.73 261.5 229.063C257.811 245.417 247.644 254.917 231 257.563C163.333 258.23 95.667 258.23 28 257.563C12.4566 252.683 3.29002 242.183 0.500025 226.063C-0.166675 161.063 -0.166675 96.0626 0.500025 31.0626C3.81562 15.9206 12.649 5.58664 27 0.0626406ZM45.9998 30.0626C102.334 29.8956 158.668 30.0626 215 30.5626C222.793 31.6876 228.293 35.8536 231.5 43.0626C232.167 100.063 232.167 157.063 231.5 214.063C229.562 221.668 224.728 226.168 217 227.563C181.363 231.623 147.363 225.957 115 210.563C75.7278 188.512 61.8948 155.679 73.4998 112.063C91.3588 75.3906 119.859 63.2246 159 75.5626C179.675 85.2206 190.342 101.555 191 124.563C188.128 154.444 171.794 169.11 142 168.563C123.591 162.585 116.425 150.085 120.5 131.063C125.681 121.39 133.515 118.224 144 121.563C146.209 123.436 148.042 125.603 149.5 128.063C149.407 132.389 149.407 136.722 149.5 141.063C156.754 145.54 162.42 143.873 166.5 136.063C170.195 116.411 162.362 103.911 143 98.5626C121.089 96.7716 105.589 105.939 96.4998 126.063C90.5378 147.167 95.3718 165.334 111 180.563C127.816 192.321 146.149 195.321 166 189.563C192.859 181.035 208.693 162.868 213.5 135.063C216.712 89.3056 196.212 60.4716 152 48.5626C104.436 43.0876 71.2698 62.2536 52.4998 106.063C37.9718 161.164 55.8058 201.997 106 228.563C85.9998 229.23 65.9998 229.23 45.9998 228.563C38.3448 226.908 33.1788 222.408 30.4998 215.063C29.8328 158.063 29.8328 101.063 30.4998 44.0626C33.3688 36.6866 38.5358 32.0196 45.9998 30.0626Z" fill="white"/>
<path fill-rule="evenodd" clip-rule="evenodd" d="M474 49.0626C492.67 48.8956 511.336 49.0626 530 49.5626C564.543 57.8006 580.043 79.6336 576.5 115.063C575.505 126.554 570.671 136.054 562 143.563C557 146.73 552 149.896 547 153.063C557.13 164.691 566.297 177.025 574.5 190.063C577.553 204.197 571.72 211.53 557 212.063C546.669 212.23 538.836 207.897 533.5 199.063C524.667 186.063 515.833 173.063 507 160.063C504.072 159.079 501.072 158.746 498 159.063C498.167 171.068 498 183.068 497.5 195.063C494.798 207.833 486.965 213.333 474 211.563C466.735 210.693 461.902 206.86 459.5 200.063C457.859 155.101 457.526 110.101 458.5 65.0626C460.506 56.5576 465.673 51.2246 474 49.0626ZM499 86.0626C506.674 85.8966 514.341 86.0626 522 86.5626C532.753 88.3166 538.086 94.6496 538 105.563C537.611 118.282 530.944 124.616 518 124.563C511.342 125.063 504.675 125.229 498 125.063C497.686 111.984 498.02 98.9836 499 86.0626Z" fill="white"/>
</svg>
